<svg width="32" height="33" fill="none" xmlns="http://www.w3.org/2000/svg"><path d="M13.333 13.833h5.334M25.333 9.833v-4A1.333 1.333 0 0024 4.5h-2.667A1.333 1.333 0 0020 5.833v4M26.667 28.5a2.667 2.667 0 002.666-2.667V20.7c0-1.854-2.666-3.95-2.666-6.439v-3.093a1.333 1.333 0 00-1.334-1.334H20a1.333 1.333 0 00-1.333 1.334v14.666a2.667 2.667 0 002.666 2.667h5.334zM29.333 21.833H2.667M5.333 28.5a2.667 2.667 0 01-2.666-2.667V20.7c0-1.854 2.666-3.95 2.666-6.439v-3.093a1.333 1.333 0 011.334-1.334H12a1.333 1.333 0 011.333 1.334v14.666a2.667 2.667 0 01-2.666 2.667H5.333zM12 9.833v-4A1.334 1.334 0 0010.667 4.5H8a1.333 1.333 0 00-1.333 1.333v4" stroke="#fff" stroke-width="2" stroke-linecap="round" stroke-linejoin="round"/></svg>