<svg width="18" height="18" fill="none" xmlns="http://www.w3.org/2000/svg"><path d="M14.304 4.268a2.042 2.042 0 00-2.042 2.042v2.286h-.184V2.944a2.944 2.944 0 10-5.887 0v6.581l-.026-.007-.104-.024c-.098-.02-.217-.04-.322-.061v-1.09a2.043 2.043 0 00-4.085 0v1.2a4.081 4.081 0 004.02 4.085l.012.003h.505V18h5.888V12.68h.259a4.04 4.04 0 004.007-4.012l.001-.012V6.31a2.042 2.042 0 00-2.042-2.042zm1.023 4.376v.004a3.01 3.01 0 01-1.842 2.776 3.02 3.02 0 01-1.173.237H11.06v5.32H7.21v-4.37H5.739a3.062 3.062 0 01-2.824-1.873 3.066 3.066 0 01-.241-1.194V8.343c0-.285.114-.537.3-.724.186-.186.439-.3.723-.3s.537.114.724.3c.186.187.3.44.3.724v1.204a1.02 1.02 0 00.17.563l.002.003a.563.563 0 00.153.153c.077.05.127.068.175.086.045.016.087.028.129.038.032.037.062.061.085.079.087.059.123.064.152.074.05.014.065.015.08.018l.04.004H7.21V2.944c0-.533.214-1.011.564-1.361.35-.35.827-.564 1.36-.564.534 0 1.012.215 1.361.564.35.35.564.828.564 1.361v6.67h1.254a.971.971 0 00.534-.161l.004-.002.005-.004-.005.003a.977.977 0 00.43-.805V6.31c0-.284.113-.537.3-.723a1.018 1.018 0 011.447 0c.185.186.299.439.3.723v2.334z" fill="#000000"/></svg>