<svg width="18" height="13" viewBox="0 0 18 13" fill="none" xmlns="http://www.w3.org/2000/svg">
<line y1="7.5" x2="3" y2="7.5" stroke="white"/>
<line x1="4.37113e-08" y1="12.5" x2="18" y2="12.5" stroke="white"/>
<line x1="4.37114e-08" y1="4.5" x2="18" y2="4.5" stroke="white"/>
<line x1="4.37114e-08" y1="0.5" x2="18" y2="0.500002" stroke="white"/>
<line x1="0.5" y1="2.5" x2="1.5" y2="2.5" stroke="white" stroke-linecap="round"/>
<line x1="3.69995" y1="2.5" x2="4.69995" y2="2.5" stroke="white" stroke-linecap="round"/>
<line x1="6.8999" y1="2.5" x2="7.8999" y2="2.5" stroke="white" stroke-linecap="round"/>
<line x1="10.0999" y1="2.5" x2="11.0999" y2="2.5" stroke="white" stroke-linecap="round"/>
<line x1="13.2998" y1="2.5" x2="14.2998" y2="2.5" stroke="white" stroke-linecap="round"/>
<line x1="16.4998" y1="2.5" x2="17.4998" y2="2.5" stroke="white" stroke-linecap="round"/>
<line x1="10" y1="7.5" x2="13" y2="7.5" stroke="white"/>
<line x1="5" y1="7.5" x2="8" y2="7.5" stroke="white"/>
<line x1="13" y1="9.5" x2="15" y2="9.5" stroke="white"/>
<line x1="8" y1="9.5" x2="10" y2="9.5" stroke="white"/>
<line x1="3" y1="9.5" x2="5" y2="9.5" stroke="white"/>
<line x1="15" y1="7.5" x2="18" y2="7.5" stroke="white"/>
</svg>
