<svg width="18" height="18" fill="none" xmlns="http://www.w3.org/2000/svg"><path d="M1.5 4.5c.45.375.9.75 1.875.75 1.875 0 1.875-1.5 3.75-1.5 1.95 0 1.8 1.5 3.75 1.5 1.875 0 1.875-1.5 3.75-1.5.975 0 1.425.375 1.875.75M1.5 9c.45.375.9.75 1.875.75 1.875 0 1.875-1.5 3.75-1.5 1.95 0 1.8 1.5 3.75 1.5 1.875 0 1.875-1.5 3.75-1.5.975 0 1.425.375 1.875.75M1.5 13.5c.45.375.9.75 1.875.75 1.875 0 1.875-1.5 3.75-1.5 1.95 0 1.8 1.5 3.75 1.5 1.875 0 1.875-1.5 3.75-1.5.975 0 1.425.375 1.875.75" stroke="#000000" stroke-linecap="round" stroke-linejoin="round"/></svg>