<svg width="18" height="18" viewBox="0 0 18 18" fill="none" xmlns="http://www.w3.org/2000/svg">
<path d="M11.8229 5.25C12.2349 4.78969 12.8336 4.5 13.5 4.5C14.7427 4.5 15.75 5.50736 15.75 6.75C15.75 7.99267 14.7427 9 13.5 9H2.25M6.38195 3.5C6.65661 3.19312 7.05575 3 7.5 3C8.32845 3 9 3.67157 9 4.5C9 5.32843 8.32845 6 7.5 6H2.25M8.63198 14.5C8.90663 14.8069 9.30578 15 9.75 15C10.5784 15 11.25 14.3284 11.25 13.5C11.25 12.6715 10.5784 12 9.75 12H2.25" stroke="white" stroke-linecap="round" stroke-linejoin="round"/>
</svg>
