<svg width="32" height="32" viewBox="0 0 32 32" fill="none" xmlns="http://www.w3.org/2000/svg">
<path d="M26.5519 14.8067C26.6274 14.3193 26.6658 13.8267 26.6666 13.3334C26.6666 10.5044 25.5428 7.79133 23.5424 5.79094C21.542 3.79055 18.8289 2.66675 15.9999 2.66675C13.1709 2.66675 10.4578 3.79055 8.45745 5.79094C6.45706 7.79133 5.33325 10.5044 5.33325 13.3334C5.33325 19.9907 12.7186 26.9241 15.1986 29.0654C15.4296 29.2391 15.7109 29.3331 15.9999 29.3331C16.289 29.3331 16.5702 29.2391 16.8013 29.0654C17.1731 28.7438 17.5394 28.4157 17.8999 28.0814" stroke="white" stroke-width="2.66667" stroke-linecap="round" stroke-linejoin="round"/>
<path d="M16 17.3333C18.2091 17.3333 20 15.5424 20 13.3333C20 11.1241 18.2091 9.33325 16 9.33325C13.7909 9.33325 12 11.1241 12 13.3333C12 15.5424 13.7909 17.3333 16 17.3333Z" stroke="white" stroke-width="2.66667" stroke-linecap="round" stroke-linejoin="round"/>
<path d="M21.3333 24H29.3333" stroke="white" stroke-width="2.66667" stroke-linecap="round" stroke-linejoin="round"/>
<path d="M25.3333 20V28" stroke="white" stroke-width="2.66667" stroke-linecap="round" stroke-linejoin="round"/>
</svg>
