<svg width="25" height="24" fill="none" xmlns="http://www.w3.org/2000/svg"><path d="M18.5 22h-14a2 2 0 01-2-2V6" stroke="#000000" stroke-width="2" stroke-linecap="round" stroke-linejoin="round"/><path d="M22.5 13l-1.296-1.296a2.41 2.41 0 00-3.408 0L11.5 18M12.5 10a2 2 0 100-4 2 2 0 000 4z" stroke="#000000" stroke-width="2" stroke-linecap="round" stroke-linejoin="round"/><path d="M20.5 2h-12a2 2 0 00-2 2v12a2 2 0 002 2h12a2 2 0 002-2V4a2 2 0 00-2-2z" stroke="#000000" stroke-width="2" stroke-linecap="round" stroke-linejoin="round"/></svg>