<svg width="18" height="18" viewBox="0 0 18 18" fill="none" xmlns="http://www.w3.org/2000/svg">
<path d="M1.5 15C1.5 15.3978 1.65804 15.7794 1.93934 16.0607C2.22064 16.342 2.60218 16.5 3 16.5H15C15.3978 16.5 15.7794 16.342 16.0607 16.0607C16.342 15.7794 16.5 15.3978 16.5 15V6L11.25 9.75V6L6 9.75V3C6 2.60218 5.84196 2.22064 5.56066 1.93934C5.27936 1.65804 4.89782 1.5 4.5 1.5H3C2.60218 1.5 2.22064 1.65804 1.93934 1.93934C1.65804 2.22064 1.5 2.60218 1.5 3V15Z" stroke="white" stroke-linecap="round" stroke-linejoin="round"/>
<path d="M12.75 13.5H13.5" stroke="white" stroke-linecap="round" stroke-linejoin="round"/>
<path d="M9 13.5H9.75" stroke="white" stroke-linecap="round" stroke-linejoin="round"/>
<path d="M5.25 13.5H6" stroke="white" stroke-linecap="round" stroke-linejoin="round"/>
</svg>
