<svg width="512" height="428" viewBox="0 0 512 428" fill="none" xmlns="http://www.w3.org/2000/svg">
<path fill-rule="evenodd" clip-rule="evenodd" d="M512 318.854H0V391.877C24.9893 387.181 51.8917 384.624 79.9213 384.624C150.937 384.624 214.717 401.033 258.481 427.082H259.316C302.821 402.972 364.137 387.954 432.077 387.954C460.107 387.954 487.01 390.511 512 395.207V318.854Z" fill="#3D2826"/>
<rect y="126.544" width="512" height="76.592" fill="#0CAF8F"/>
<rect y="223.115" width="512" height="76.592" fill="#007A7A"/>
<path fill-rule="evenodd" clip-rule="evenodd" d="M0 13.9474V108.228H512V13.1094C486.504 4.71441 457.824 0 427.5 0C353.488 0 289.262 28.0848 257.249 69.2222C225.237 28.0848 161.011 0 86.9989 0C55.6805 0 26.1145 5.0288 0 13.9474Z" fill="#42B760"/>
</svg>
