<svg width="9" height="14" fill="none" xmlns="http://www.w3.org/2000/svg"><path d="M8.615 4.086c.001-.9-.311-1.774-.889-2.487A4.327 4.327 0 005.422.139a4.53 4.53 0 00-2.765.173A4.244 4.244 0 00.575 2.045a1.114 1.114 0 00-.123.885c.085.3.291.554.574.709.283.154.619.196.934.116.316-.08.585-.276.748-.544.162-.266.396-.486.676-.64a1.929 1.929 0 012.23.278c.345.328.54.773.54 1.237 0 .464-.195.91-.54 1.237a1.9 1.9 0 01-1.306.513h-.004c-.08.007-.158.022-.234.045a1.332 1.332 0 00-.243.047 1.215 1.215 0 00-.191.122c-.07.037-.138.08-.2.128a1.17 1.17 0 00-.144.203 1.14 1.14 0 00-.119.168c-.027.08-.045.164-.053.248a1.055 1.055 0 00-.043.205v1.166l.002.013v.573c.001.309.131.605.362.823.23.218.543.34.87.34h.003c.162 0 .322-.03.47-.089.15-.059.285-.145.4-.253.113-.109.204-.238.265-.38.062-.141.093-.293.093-.446l-.002-.772a4.308 4.308 0 002.217-1.463c.554-.701.855-1.552.858-2.428zm-5.172 7.92c-.173.162-.291.37-.34.595a1.11 1.11 0 00.067.674c.092.214.25.397.451.526.202.129.44.198.683.199.326-.003.639-.124.874-.338.228-.222.356-.519.356-.828 0-.31-.128-.607-.356-.828a1.312 1.312 0 00-.868-.324c-.322 0-.632.115-.867.324z" fill="#000000"/></svg>