<svg width="18" height="18" viewBox="0 0 18 18" fill="none" xmlns="http://www.w3.org/2000/svg">
<path d="M7.5 8.25L15.75 8.925C16.2 8.925 16.425 9.3 16.35 9.75L15.75 13.5H15" stroke="white" stroke-linecap="round" stroke-linejoin="round"/>
<path d="M12 13.5H8.25" stroke="white" stroke-linecap="round" stroke-linejoin="round"/>
<path d="M13.5 3.75C13.3011 3.75 13.1103 3.82902 12.9697 3.96967C12.829 4.11032 12.75 4.30109 12.75 4.5V8.67975" stroke="white" stroke-linecap="round" stroke-linejoin="round"/>
<path d="M2.25 3H9L9.75 8.4345" stroke="white" stroke-linecap="round" stroke-linejoin="round"/>
<path d="M3 8.25V3" stroke="white" stroke-linecap="round" stroke-linejoin="round"/>
<path d="M5.25 11.25H5.2575" stroke="white" stroke-linecap="round" stroke-linejoin="round"/>
<path d="M6 7.575V3" stroke="white" stroke-linecap="round" stroke-linejoin="round"/>
<path d="M13.5 15C14.3284 15 15 14.3284 15 13.5C15 12.6716 14.3284 12 13.5 12C12.6716 12 12 12.6716 12 13.5C12 14.3284 12.6716 15 13.5 15Z" stroke="white" stroke-linecap="round" stroke-linejoin="round"/>
<path d="M5.25 15C7.32107 15 9 13.3211 9 11.25C9 9.17893 7.32107 7.5 5.25 7.5C3.17893 7.5 1.5 9.17893 1.5 11.25C1.5 13.3211 3.17893 15 5.25 15Z" stroke="white" stroke-linecap="round" stroke-linejoin="round"/>
</svg>
